<svg width="43" height="101" viewBox="0 0 43 101" fill="none" xmlns="http://www.w3.org/2000/svg">
<path d="M19.3289 4.0536C20.0508 8.32779 20.5562 17.0705 20.5562 31.0587V101H22V32.4187C22 17.2647 20.9171 7.74495 20.123 2.88791C19.3289 -1.58056 18.5348 -0.609153 19.3289 4.0536Z" fill="#33691E"/>
<path d="M23.5705 13.6088L23.0468 13.085C24.244 12.0374 24.5433 10.0171 24.9174 8.44582C25.067 7.92204 25.4412 7.47309 25.8901 7.32344C27.3118 6.79967 28.6586 6.20106 29.9307 5.52764C30.23 5.37799 30.6041 5.30316 30.9034 5.37799C32.774 5.75211 34.2705 6.50036 35.9915 6.35071C38.1614 6.20106 38.76 6.94932 36.4405 7.17379C34.5698 7.32344 32.6244 7.24862 30.6041 6.87449C29.2572 7.62274 27.8356 8.22134 26.3391 8.74512C25.9649 10.5409 24.9174 12.3367 23.5705 13.6088Z" fill="#33691E"/>
<path d="M34.7183 6.42453C35.3169 6.42453 35.8407 6.42453 36.3645 6.34971C34.1945 6.94831 32.0994 7.62174 30.0043 8.36999C27.5351 9.26789 25.44 10.914 23.9435 13.084C23.7938 12.9343 23.6442 12.9343 23.4197 12.9343C23.2701 12.9343 23.1204 13.0091 22.9708 13.084C24.2428 11.8868 25.1407 10.3154 25.5896 8.59446C25.6645 8.29516 25.8141 8.14551 26.1134 7.99586C27.5351 7.47208 28.9568 6.87348 30.2288 6.20006C30.3785 6.12523 30.6029 6.05041 30.7526 6.12523C32.0994 6.34971 33.3715 6.42453 34.7183 6.42453Z" fill="#558B2F"/>
<path d="M21.8483 20.9424H21.1001C21.1001 18.6228 21.6987 16.3032 22.8211 14.2081C23.1204 13.6844 23.4197 13.2354 23.719 12.7864C25.2903 10.5417 27.4602 8.89554 30.0043 7.99764C35.6162 5.97736 42.7994 4.85498 42.7994 4.85498C40.6295 5.30393 38.4595 6.05218 36.4393 6.57596C34.1945 7.17456 32.1742 7.99764 30.2288 8.74589C27.8344 9.56897 25.8141 11.1403 24.3176 13.3102C24.0183 13.6844 23.719 14.1333 23.4945 14.6571C22.3721 16.5277 21.8483 18.6976 21.8483 20.9424Z" fill="#33691E"/>
<path d="M36.6638 8.89554C35.0176 12.0382 31.2764 13.7592 27.4603 13.7592C26.3379 13.7592 23.9435 13.0857 23.9435 13.0857C23.719 12.562 22.9708 12.4871 22.5218 12.6368C22.1477 12.7864 21.8484 13.1606 21.8484 13.6844C21.8484 14.1333 22.0729 14.5823 22.3722 14.8816C22.8211 14.283 23.1204 13.5347 23.5694 13.834C24.6169 14.5074 25.9638 15.2557 27.3855 15.2557C31.6505 15.2557 35.691 13.0857 37.7861 9.64379C38.9085 7.77316 40.405 5.67806 42.6498 4.85498C42.7994 4.85498 38.2351 5.90253 36.6638 8.89554Z" fill="#689F38"/>
<path d="M42.7997 4.85498C40.555 5.75288 38.6095 7.24939 37.3375 9.26967C35.3172 12.4871 31.576 14.5074 27.5354 14.5074C26.1137 14.5074 24.9913 13.9837 24.0186 13.0857C25.5151 10.9906 27.6102 9.26967 30.0795 8.37176C32.1746 7.62351 34.2697 6.95009 36.4396 6.35148C38.6843 6.20183 40.7795 5.67806 42.7997 4.85498Z" fill="#8BC34A"/>
<path d="M34.8682 6.57389C36.9633 5.90046 40.4053 5.15221 42.7997 4.92773C40.7794 5.67599 39.2829 7.39697 34.8682 6.57389Z" fill="#558B2F"/>
<path d="M21.6993 20.6421C21.5496 19.8938 21.3252 19.2204 21.1007 18.3973C19.9783 15.0302 18.1077 12.112 15.5636 9.64275C11.4483 5.67702 6.43496 3.65674 0.523776 3.65674H0L0.448951 4.03086C7.10839 9.34345 13.0944 15.4791 18.2573 22.2134C18.3322 22.2882 18.3322 22.363 18.407 22.363C18.6315 22.5875 18.7811 22.8868 18.9308 23.1113C19.0804 23.3358 19.1552 23.4854 19.2301 23.6351C19.679 24.0092 20.5769 23.7847 21.0259 23.2609C21.4748 22.7372 21.7741 21.9889 21.7741 21.2407C21.7741 21.0162 21.7741 20.8665 21.6993 20.6421Z" fill="#689F38"/>
<path d="M17.8832 21.6883C12.7203 15.1036 6.88392 9.19245 0.374126 3.95469L0 3.58057C1.34685 13.0834 8.6049 20.94 18.1825 22.1372C18.1825 22.1372 18.0329 21.8379 17.8832 21.6883Z" fill="#558B2F"/>
<path d="M21.1007 29.919H20.3524C20.3524 27.3001 19.9783 25.205 18.7063 23.4841C18.2573 22.8106 17.5839 21.9127 17.5839 21.9127C16.686 20.7155 17.2846 20.2666 18.1825 21.4638C18.1825 21.4638 18.7811 22.2869 19.3049 22.9603C20.6517 24.8309 21.1007 27.0757 21.1007 29.919ZM15.7133 19.5183C14.7406 18.396 13.9175 17.1239 12.8699 16.0015C12.4958 15.5526 12.7951 15.2533 13.2441 15.7022C14.2168 16.8246 15.3392 17.8722 16.3119 18.9946C16.8357 19.7428 16.2371 20.1918 15.7133 19.5183ZM11.8972 14.954C9.87692 12.7841 7.70699 10.6141 5.53706 8.66868C5.08811 8.29455 5.31259 7.99525 5.76154 8.36938C8.00629 10.3897 10.1762 12.4848 12.1965 14.6547C12.5706 15.0288 12.1965 15.3281 11.8972 14.954ZM3.29231 6.6484C2.31958 5.7505 0.897902 4.55329 0 3.58057C0 3.58057 2.54406 5.52602 3.51678 6.3491C4.11538 6.9477 3.89091 7.17217 3.29231 6.6484Z" fill="#33691E"/>
</svg>
