<svg width="275" height="107" viewBox="0 0 275 107" fill="none" xmlns="http://www.w3.org/2000/svg">
<path d="M66.5762 56.4347H62.0368V51.8953M66.5762 56.4347H71.1155V51.8953M66.5762 56.4347V47.356M66.5762 47.356H71.1155V51.8953M66.5762 47.356H62.0368V51.8953M62.0368 51.8953H71.1155" stroke="#323232" stroke-width="2" stroke-linejoin="round"/>
<path fill-rule="evenodd" clip-rule="evenodd" d="M2.72362 70.0576C2.72362 70.0576 2.72362 70.108 2.72362 70.2089C4.23674 74.5969 6.20381 78.985 8.92743 83.0704C9.73443 84.18 10.5414 85.2896 11.3484 86.3993C13.9712 89.7281 16.8965 92.7039 20.1245 95.3267C27.9928 101.53 37.0715 105.465 46.7555 106.675C48.9747 106.877 51.2444 106.978 53.5645 106.978C65.8208 106.978 77.4719 103.044 87.0045 95.3267C91.3926 91.8465 95.1754 87.7611 98.2016 83.0704C100.925 78.985 103.044 74.5969 104.405 70.2089C106.221 64.7617 107.129 59.1631 107.129 53.5646C107.129 24.0587 83.0704 0 53.5645 0C24.0586 0 2.02827e-05 24.0587 2.02827e-05 53.5646C2.02827e-05 59.1631 0.907875 64.7616 2.72362 70.0576ZM103.044 53.5646C103.044 58.1039 102.287 62.6433 101.077 67.0313C95.4276 65.8208 89.6777 64.8121 83.827 64.0051V47.0581L84.4322 47.5121C85.1888 48.2686 86.5506 48.1173 87.3071 47.3607C88.0637 46.4529 87.9124 45.0911 87.0045 44.3345L76.7153 35.7097V30.1112C76.7153 28.9007 75.8074 27.9928 74.5969 27.9928C73.3864 27.9928 72.4785 28.9007 72.4785 30.1112V32.2295L68.0905 28.4467C67.9896 28.4467 67.9392 28.4467 67.9392 28.4467C67.8383 28.3458 67.687 28.245 67.4852 28.1441C67.3843 28.1441 67.3339 28.1441 67.3339 28.1441C67.1322 28.0432 66.9304 27.9928 66.7287 27.9928H40.5517C40.0473 27.9928 39.5934 28.1441 39.1899 28.4467L20.1245 44.3345C19.2166 45.0911 19.2166 46.4529 19.8219 47.3607C20.2758 47.8147 20.8811 47.966 21.4863 47.966C21.9907 47.966 22.4446 47.8147 22.8481 47.5121L23.4534 47.0581V64.0051C17.5018 64.8121 11.7519 65.8208 6.20378 67.0313C4.84197 62.6433 4.23674 58.1039 4.23674 53.5646C4.23674 26.3284 26.3283 4.08545 53.5645 4.08545C80.8007 4.08545 103.044 26.3284 103.044 53.5646ZM7.41431 70.9655C21.9403 67.7879 37.3741 66.1234 53.5645 66.1234C69.6036 66.1234 85.4914 67.7879 99.7147 70.9655C99.7147 71.1672 99.6643 71.3689 99.5634 71.5707C99.4625 71.8733 99.3113 72.2263 99.1095 72.6298C98.9078 73.2351 98.6556 73.8404 98.3529 74.4456C98.1512 74.7482 97.9999 75.0509 97.899 75.3535C97.5964 76.0596 97.2433 76.7153 96.8398 77.3205C96.7389 77.6232 96.5876 77.8753 96.3859 78.0771C96.0832 78.5815 95.7806 79.0858 95.478 79.5902C82.1625 77.0179 68.0905 75.6561 53.5645 75.6561C39.0386 75.6561 24.9665 77.0179 11.651 79.5902C11.3484 79.0858 11.0458 78.5815 10.7431 78.0771C10.6423 77.8753 10.491 77.6232 10.2892 77.3205C9.98661 76.7153 9.68397 76.0596 9.38135 75.3535C9.1796 75.0509 8.97786 74.7482 8.77611 74.4456C8.57436 73.8404 8.32217 73.2351 8.01955 72.6298C7.91867 72.2263 7.76738 71.8733 7.56563 71.5707C7.56563 71.3689 7.51518 71.1672 7.41431 70.9655ZM14.2234 83.373C26.7823 80.952 39.9464 79.7415 53.5645 79.7415C67.1826 79.7415 80.4981 80.952 92.9057 83.373C92.9057 83.4739 92.8552 83.5748 92.7544 83.6757C92.5526 83.9783 92.3004 84.2809 91.9978 84.5835C91.4934 85.1888 90.9891 85.794 90.4847 86.3993C90.1821 86.7019 89.8794 87.0045 89.5768 87.3071C89.0724 87.9124 88.5176 88.4672 87.9124 88.9716C87.6097 89.2742 87.3576 89.5769 87.1558 89.8795C86.4497 90.4847 85.7436 91.0395 85.0374 91.5439C74.8995 90.1821 64.3077 89.4255 53.5645 89.4255C42.8214 89.4255 32.2295 90.1821 22.0916 91.5439C21.3854 91.0395 20.7298 90.4847 20.1245 89.8795C19.8219 89.5769 19.5697 89.3247 19.368 89.1229C18.7627 88.5177 18.1574 87.9124 17.5522 87.3071C17.2496 87.0045 16.9974 86.7019 16.7956 86.3993C16.1904 85.794 15.6356 85.1384 15.1312 84.4322C14.9295 84.2305 14.7277 83.9783 14.526 83.6757C14.4251 83.5748 14.3242 83.4739 14.2234 83.373ZM79.7415 43.5779V63.3998C71.268 62.492 62.5928 62.038 53.7158 62.038V43.5779L66.7287 32.6834L79.7415 43.5779ZM27.5388 44.7884H46.1502C45.545 45.545 45.545 46.6042 46.1502 47.3607C46.6042 47.8147 47.2094 48.1173 47.6634 48.1173C48.1677 48.1173 48.6217 47.9156 49.0252 47.5121L49.6304 47.0581V62.038C48.1173 62.038 46.6042 62.0884 45.091 62.1893L41.0056 62.3406C36.4662 62.5424 31.9773 62.9459 27.5388 63.5511V44.7884ZM31.1703 40.5517L41.3082 32.0782H61.1301L50.9922 40.5517H31.1703ZM53.5645 102.892C52.5558 102.892 51.4966 102.892 50.387 102.892C50.1852 102.791 49.9835 102.741 49.7817 102.741C48.773 102.741 47.7642 102.64 46.7555 102.438C46.5537 102.438 46.352 102.438 46.1502 102.438C45.1415 102.237 44.1327 102.035 43.124 101.833C43.0231 101.833 42.9222 101.833 42.8213 101.833C41.8126 101.531 40.8543 101.278 39.9464 101.077C39.7447 100.976 39.5933 100.925 39.4925 100.925C38.4837 100.623 37.5254 100.27 36.6175 99.866C36.4158 99.866 36.2141 99.8156 36.0123 99.7148C35.1044 99.3113 34.1461 98.9077 33.1374 98.5042C33.0365 98.5042 32.9356 98.4538 32.8347 98.3529C31.9269 97.9494 31.019 97.4955 30.1111 96.9911C30.0103 96.9911 29.9094 96.9407 29.8085 96.8398C28.9006 96.3354 28.0432 95.8311 27.2362 95.3267C27.1353 95.2258 27.0344 95.125 26.9336 95.0241C44.1832 93.057 62.9459 93.057 80.3468 95.0241C80.2459 95.125 80.145 95.2258 80.0442 95.3267C79.1363 95.8311 78.2284 96.3354 77.3205 96.8398C77.2196 96.9407 77.1692 96.9911 77.1692 96.9911C76.2614 97.4955 75.3535 97.9494 74.4456 98.3529C74.2438 98.4538 74.0925 98.5042 73.9917 98.5042C73.0838 98.9077 72.1255 99.3113 71.1167 99.7148C71.0159 99.8156 70.8645 99.866 70.6628 99.866C69.654 100.27 68.6957 100.623 67.7879 100.925C67.5861 100.925 67.4348 100.976 67.3339 101.077C66.3252 101.278 65.3668 101.531 64.459 101.833C64.3581 101.833 64.2573 101.833 64.1564 101.833C63.1476 102.035 62.1389 102.237 61.1301 102.438C60.9284 102.438 60.7266 102.438 60.5249 102.438C59.5161 102.64 58.457 102.741 57.3473 102.741C57.2465 102.741 57.0951 102.791 56.8934 102.892C55.7837 102.892 54.6741 102.892 53.5645 102.892Z" fill="#323232"/>
<path d="M263.762 37.82C263.762 37.82 102.677 38.5 102.5 37.5C102.323 36.5 105 47.3318 105 55C105 63.5049 103 71 103 71H245.726C255.763 70.328 261.932 63.72 263.762 60.5M263.762 37.82L270.036 29C271.866 29.42 274.741 32.192 271.604 39.92L263.762 60.5M263.762 37.82L251.215 55.04C253.829 55.04 259.998 56.132 263.762 60.5" stroke="#323232" stroke-width="4" stroke-linejoin="round"/>
<path d="M133.3 49.3585C132.847 49.4652 132.467 49.5185 132.16 49.5185C131.853 49.5185 131.56 49.4985 131.28 49.4585C130.867 49.9518 130.493 50.6118 130.16 51.4385C129.827 52.2652 129.573 53.0052 129.4 53.6585C129.24 54.3118 129.06 55.1118 128.86 56.0585C127.847 60.8852 126.833 64.3118 125.82 66.3385C125.153 66.5385 124.327 66.7318 123.34 66.9185C124.673 64.6385 125.753 61.9918 126.58 58.9785H122.44C121.387 55.5652 120.84 52.2318 120.8 48.9785H126.64C126.36 50.2185 126.22 51.5385 126.22 52.9385C126.22 54.3252 126.447 55.9118 126.9 57.6985C126.993 57.3385 127.153 56.7118 127.38 55.8185C127.607 54.9118 127.773 54.2652 127.88 53.8785C127.987 53.4918 128.147 52.9452 128.36 52.2385C128.587 51.5318 128.787 51.0052 128.96 50.6585C129.147 50.2985 129.373 49.8985 129.64 49.4585C130.12 48.6718 130.753 48.1385 131.54 47.8585C131.767 47.7918 132.227 47.7252 132.92 47.6585C133.613 47.5785 134.113 47.4385 134.42 47.2385C134.06 48.0652 133.687 48.7718 133.3 49.3585ZM152.272 60.8385C152.272 59.5985 151.442 58.9785 149.782 58.9785H140.962C139.282 58.9785 138.442 59.8885 138.442 61.7085C138.442 62.0085 138.452 62.2385 138.472 62.3985C137.332 62.3785 136.432 62.3485 135.772 62.3085C135.352 60.9485 134.972 59.0685 134.632 56.6685C135.052 56.7085 135.682 56.7485 136.522 56.7885C136.522 54.6085 136.712 52.8985 137.092 51.6585C138.472 51.2585 139.722 50.5685 140.842 49.5885C141.982 48.6085 142.852 47.5085 143.452 46.2885C142.912 45.4485 142.342 44.6785 141.742 43.9785H151.672C153.412 47.6785 154.392 51.9885 154.612 56.9085L156.652 56.9985C156.272 59.0985 155.812 60.9085 155.272 62.4285L151.972 62.2485C152.172 61.7285 152.272 61.2585 152.272 60.8385ZM143.032 55.0485C143.032 55.6485 143.072 56.1885 143.152 56.6685C144.452 56.8685 145.812 56.9785 147.232 56.9985C146.852 53.8185 145.982 50.9185 144.622 48.2985C143.562 50.7985 143.032 53.0485 143.032 55.0485ZM171.447 58.8185V58.9785H166.807C166.754 58.2185 166.641 57.4318 166.467 56.6185C165.641 57.4585 164.707 58.2452 163.667 58.9785H159.007C158.914 58.4318 158.867 57.7118 158.867 56.8185C158.867 55.9118 159.001 55.0052 159.267 54.0985C160.227 53.8185 161.147 53.3452 162.027 52.6785C162.921 52.0118 163.567 51.2918 163.967 50.5185C163.607 49.9585 163.227 49.4452 162.827 48.9785H169.467C170.787 51.8452 171.447 55.1252 171.447 58.8185ZM166.107 55.1585C165.761 53.9718 165.307 52.8518 164.747 51.7985C164.121 53.6385 163.761 55.3785 163.667 57.0185C164.627 56.5252 165.441 55.9052 166.107 55.1585ZM181.759 54.6185C181.706 53.9118 181.679 53.0518 181.679 52.0385C181.679 51.0118 181.726 49.9918 181.819 48.9785H187.339C186.846 51.4452 186.599 53.8052 186.599 56.0585C186.599 57.1118 186.646 58.0852 186.739 58.9785H182.359C182.159 57.9518 182.013 57.0318 181.919 56.2185C181.253 55.7918 180.106 55.5785 178.479 55.5785C177.706 55.5785 176.946 55.6252 176.199 55.7185C175.293 53.6785 174.693 51.4318 174.399 48.9785H179.499C179.499 52.4318 180.253 54.3118 181.759 54.6185ZM202.651 50.6385C202.651 53.2518 202.398 56.0318 201.891 58.9785H197.111C197.325 57.4052 197.465 55.7118 197.531 53.8985C196.838 53.4718 196.065 53.2118 195.211 53.1185C195.131 55.0785 194.918 57.0318 194.571 58.9785H190.031C190.205 57.6718 190.291 56.1118 190.291 54.2985C190.291 52.4718 190.171 50.6985 189.931 48.9785H195.211C195.238 49.5252 195.251 50.3385 195.251 51.4185C196.025 51.6585 196.791 51.9852 197.551 52.3985C197.551 51.1585 197.505 50.0185 197.411 48.9785H202.611C202.638 49.7252 202.651 50.2785 202.651 50.6385ZM217.876 58.8185V58.9785H213.236C213.183 58.2185 213.07 57.4318 212.896 56.6185C212.07 57.4585 211.136 58.2452 210.096 58.9785H205.436C205.343 58.4318 205.296 57.7118 205.296 56.8185C205.296 55.9118 205.43 55.0052 205.696 54.0985C206.656 53.8185 207.576 53.3452 208.456 52.6785C209.35 52.0118 209.996 51.2918 210.396 50.5185C210.036 49.9585 209.656 49.4452 209.256 48.9785H215.896C217.216 51.8452 217.876 55.1252 217.876 58.8185ZM212.536 55.1585C212.19 53.9718 211.736 52.8518 211.176 51.7985C210.55 53.6385 210.19 55.3785 210.096 57.0185C211.056 56.5252 211.87 55.9052 212.536 55.1585ZM221.388 52.5585C221.388 51.5052 221.535 50.3118 221.828 48.9785H232.268C232.455 50.3918 232.548 51.9318 232.548 53.5985C232.548 55.2518 232.355 57.0452 231.968 58.9785H227.608C227.688 58.0452 227.728 57.2385 227.728 56.5585C227.728 55.8652 227.722 55.4052 227.708 55.1785C226.575 55.6585 225.868 56.9252 225.588 58.9785H220.428C220.535 57.4718 220.808 56.1585 221.248 55.0385C222.822 54.9718 224.202 54.7852 225.388 54.4785C223.842 54.1585 222.508 53.7118 221.388 53.1385V52.5585ZM227.288 50.3185C226.582 51.2252 226.108 52.1185 225.868 52.9985C226.322 53.4118 226.915 53.6718 227.648 53.7785C227.568 52.6452 227.448 51.4918 227.288 50.3185Z" fill="#323232"/>
</svg>
